<?xml version="1.0" encoding="UTF-8" standalone="no"?>
<svg width="400" height="400" viewBox="0 0 400 400" xmlns="http://www.w3.org/2000/svg">
  <style>
    .bg { fill: #3b82f6; }
    .text { fill: white; font-family: system-ui, -apple-system, sans-serif; text-anchor: middle; }
    .title { font-size: 32px; font-weight: bold; }
    .subtitle { font-size: 20px; }
    .icon { fill: white; }
  </style>
  
  <!-- Background -->
  <rect class="bg" width="400" height="400" rx="8" />
  
  <!-- Microphone Icon -->
  <path class="icon" d="M200 100 C177.9 100 160 117.9 160 140 L160 200 C160 222.1 177.9 240 200 240 C222.1 240 240 222.1 240 200 L240 140 C240 117.9 222.1 100 200 100 Z M180 140 C180 128.95 188.95 120 200 120 C211.05 120 220 128.95 220 140 L220 200 C220 211.05 211.05 220 200 220 C188.95 220 180 211.05 180 200 L180 140 Z" />
  <path class="icon" d="M260 180 L260 200 C260 233.14 233.14 260 200 260 C166.86 260 140 233.14 140 200 L140 180 L120 180 L120 200 C120 242.35 152.29 277.41 190 284.18 L190 320 L160 320 L160 340 L240 340 L240 320 L210 320 L210 284.18 C247.71 277.41 280 242.35 280 200 L280 180 L260 180 Z" />
  
  <!-- Text -->
  <text class="text title" x="200" y="300">Podcast Cover</text>
  <text class="text subtitle" x="200" y="330">Placeholder Image</text>
</svg> 